# xmcd
#
# Track frame offsets: 
#        150
#        25639
#        42359
#        61420
#        79932
#        103064
#        139086
#        162277
#        172945
#        196162
#        212559
#        232842
#
# Disc length: 3312 seconds
#
# Revision: 15
# Processed by: cddbd v1.5.2PL0 Copyright (c) Steve Scherf et al.
# Submitted via: ExactAudioCopy v1.0b3
#
DISCID=940cee0c
DTITLE=Gallagher, Rory - Fresh Evidence
DYEAR=1990
DGENRE=Blues
TTITLE0=Kid Gloves
TTITLE1=The King Of Zydeco
TTITLE2=Middle Name
TTITLE3=Alexis
TTITLE4=Empire State Express
TTITLE5=Ghost Blues
TTITLE6=Heaven's Gate
TTITLE7=The Loop
TTITLE8=Walkin' Wounded
TTITLE9=Slumming Angel
TTITLE10=Never Asked You For Nothin'
TTITLE11=Bowed Not Broken
EXTD=YEAR: 1990 1998 BMG Remastered and 2 Bonus Tracks
EXTT0=
EXTT1=
EXTT2=
EXTT3=
EXTT4=
EXTT5=
EXTT6=
EXTT7=
EXTT8=
EXTT9=
EXTT10=
EXTT11=
PLAYORDER=
